<?xml version="1.0" encoding="utf-8"?>
<!-- Generator: Adobe Illustrator 16.0.0, SVG Export Plug-In . SVG Version: 6.00 Build 0)  -->
<!DOCTYPE svg PUBLIC "-//W3C//DTD SVG 1.1//EN" "http://www.w3.org/Graphics/SVG/1.1/DTD/svg11.dtd">
<svg version="1.1" id="Layer_1" xmlns="http://www.w3.org/2000/svg" xmlns:xlink="http://www.w3.org/1999/xlink" x="0px" y="0px"
	 width="841.89px" height="595.28px" viewBox="0 0 841.89 595.28" enable-background="new 0 0 841.89 595.28" xml:space="preserve">
<rect x="129.134" y="188.874" fill="#B3B3B3" width="595.28" height="236.653"/>
<g>
	<g>
		<g>
			<g>
				<g>
					<g>
						<g>
							<g>
								<g>
									<rect x="129.239" y="188.736" fill="#EDAEAE" width="595.626" height="240.278"/>
								</g>
							</g>
						</g>
					</g>
				</g>
			</g>
		</g>
	</g>
	<g opacity="0.27">
		<defs>
			<rect id="SVGID_1_" x="129.335" y="188.874" opacity="0.27" width="594.089" height="240.002"/>
		</defs>
		<clipPath id="SVGID_2_">
			<use xlink:href="#SVGID_1_"  overflow="visible"/>
		</clipPath>
		<g clip-path="url(#SVGID_2_)">
			<path fill="#F4D3D3" d="M123.801,207.91l0.219,0.064l34.056-13.755l32.815,13.247l1.551,0.582l34.261-13.829l33.985,13.728
				l0.136-0.037l0.362,0.143l34.269-13.833l32.788,13.246l0.641,0.241h1.748l33.382-13.487l34.056,13.751l0.216-0.063l0.316,0.108
				l34.157-13.797l32.809,13.246l1.131,0.425l0.561-0.12l0.436,0.059l33.678-13.609l34.169,13.797l0.295-0.101l0.216,0.064
				l34.092-13.762l32.522,13.137l1.088,0.987l34.979-14.123l33.362,13.472l0.542,0.149l0.555,0.22l34.293-13.842l32.795,13.239
				l1.627,0.643l2.233-0.977v-8.837l-2.349,0.945l-34.307-13.856l-34.37,13.889l-34.382-13.889l-34.293,13.852l-34.297-13.852
				l-34.399,13.889l-34.372-13.889l-34.303,13.856l-34.311-13.856L398.4,199.265l-34.386-13.889l-34.285,13.843l-34.271-13.843
				l-34.373,13.889l-34.381-13.889l-34.309,13.856l-34.318-13.856l-34.372,13.889l-2.39-0.968v8.838l2.184,0.879L123.801,207.91z
				 M364.014,191.777l-34.276,13.853l-34.28-13.853l-34.391,13.884l-34.363-13.884l-34.316,13.855l-34.312-13.855l-32.489,13.125
				v-3.959l32.489-13.127l34.318,13.856l34.309-13.856l34.381,13.888l34.373-13.888l34.271,13.842l34.285-13.842l34.386,13.888
				l34.359-13.888l34.311,13.856l34.303-13.856l34.372,13.888l34.399-13.888l34.297,13.852l34.293-13.852l34.382,13.888
				l34.37-13.888l32.385,13.081v3.958l-32.385-13.078l-34.381,13.881l-34.371-13.881l-34.301,13.85l-34.289-13.85l-34.395,13.884
				l-34.377-13.884l-34.298,13.859l-34.315-13.859l-34.368,13.884L364.014,191.777z"/>
			<path fill="#F4D3D3" d="M123.801,220.87l0.21,0.062l34.064-13.76l32.82,13.253l1.562,0.571l34.246-13.824l34.011,13.74
				l0.116-0.031l0.338,0.134l34.288-13.843l32.795,13.251l0.64,0.237h1.741l33.382-13.488l34.067,13.757l0.201-0.058l0.301,0.104
				l34.176-13.804l32.809,13.248l1.105,0.417l0.582-0.115l0.451,0.054l33.666-13.604l34.201,13.81l0.279-0.101l0.187,0.056
				l34.104-13.765l32.522,13.137l1.097,0.985l34.971-14.122l33.459,13.504l0.381,0.097l0.611,0.247l34.301-13.848l32.799,13.242
				l1.617,0.634l2.239-0.972v-8.837l-2.354,0.948l-34.302-13.858l-34.37,13.888l-34.382-13.888l-34.293,13.854l-34.297-13.854
				l-34.399,13.888l-34.372-13.888l-34.303,13.858l-34.311-13.858L398.4,212.217l-34.386-13.888l-34.285,13.845l-34.271-13.845
				l-34.373,13.888l-34.381-13.888l-34.309,13.858l-34.318-13.858l-34.38,13.888l-2.382-0.959v8.828l2.184,0.886L123.801,220.87z
				 M261.067,218.616l-34.363-13.886l-34.316,13.856l-34.312-13.856l-32.489,13.126v-3.959l32.489-13.13l34.318,13.858
				l34.309-13.858l34.381,13.891l34.373-13.891l34.271,13.845l34.285-13.845l34.386,13.891l34.359-13.891l34.311,13.858
				l34.303-13.858l34.372,13.891l34.399-13.891l34.297,13.855l34.293-13.855l34.382,13.891l34.37-13.891l32.385,13.082v3.958
				l-32.385-13.077l-34.381,13.882l-34.371-13.882l-34.301,13.852l-34.289-13.852l-34.395,13.885l-34.377-13.885l-34.298,13.859
				L432.76,204.73l-34.368,13.885l-34.378-13.885l-34.276,13.852l-34.28-13.852L261.067,218.616z"/>
			<path fill="#F4D3D3" d="M123.791,233.825l0.214,0.064l34.072-13.764l34.334,13.845l34.293-13.845l33.983,13.728l0.116-0.03
				l0.365,0.147l34.288-13.845l32.797,13.253l0.641,0.236h1.738l33.382-13.489l34.056,13.753l0.196-0.056l0.313,0.111l34.181-13.809
				l32.811,13.251l1.129,0.421l0.555-0.116l0.433,0.06l33.687-13.615l34.189,13.805l0.276-0.098l0.196,0.061l34.109-13.768
				l32.516,13.132l1.063,1.007l35.012-14.139l33.459,13.503l0.458,0.125l0.552,0.211l34.283-13.839l32.799,13.244l1.643,0.642
				l2.214-0.982v-8.833l-2.346,0.944l-34.31-13.856l-34.37,13.888l-34.382-13.888l-34.293,13.853l-34.297-13.853l-34.399,13.888
				l-34.372-13.888l-34.303,13.856l-34.311-13.856L398.4,225.172l-34.386-13.888l-34.285,13.843l-34.271-13.843l-34.373,13.888
				l-34.381-13.888l-34.309,13.856l-34.318-13.856l-34.377,13.888l-2.385-0.964v8.832l2.182,0.885L123.791,233.825z M261.067,231.57
				l-34.363-13.885l-34.316,13.854l-34.312-13.854l-32.489,13.126v-3.962l32.489-13.125l34.318,13.855l34.309-13.855l34.381,13.888
				l34.373-13.888l34.271,13.84l34.285-13.84l34.386,13.888l34.359-13.888l34.311,13.855l34.303-13.855l34.372,13.888l34.399-13.888
				l34.297,13.85l34.293-13.85l34.382,13.888l34.37-13.888l32.385,13.081v3.957l-32.385-13.077l-34.381,13.88l-34.371-13.88
				l-34.301,13.851l-34.289-13.851L535.75,231.57l-34.377-13.885l-34.298,13.859l-34.315-13.859l-34.368,13.885l-34.378-13.885
				l-34.276,13.852l-34.28-13.852L261.067,231.57z"/>
			<path fill="#F4D3D3" d="M123.784,246.78l0.214,0.065l34.078-13.768l32.809,13.247l1.53,0.599l34.289-13.846l33.989,13.731
				l0.119-0.031l0.356,0.145l34.288-13.845l32.786,13.248l0.643,0.244h1.748l33.382-13.492l33.712,13.617l0.353,0.143l0.196-0.058
				l0.302,0.107l34.183-13.81l32.809,13.251l1.117,0.418l0.572-0.115l0.44,0.055l33.675-13.608l34.186,13.804l0.283-0.1l0.203,0.062
				l34.1-13.766l32.516,13.135l1.065,1.003l35.009-14.138l33.456,13.505l0.466,0.127l0.545,0.21l34.285-13.842l32.799,13.243
				l1.668,0.657l2.188-0.992v-8.837l-2.346,0.944l-34.31-13.857l-34.37,13.889l-34.382-13.888l-34.293,13.853l-34.297-13.853
				l-34.399,13.888l-34.372-13.889l-34.303,13.857l-34.311-13.857L398.4,238.125l-34.386-13.888l-34.285,13.843l-34.271-13.844
				l-34.373,13.889l-34.381-13.888l-34.309,13.856l-34.318-13.856l-34.372,13.888l-2.39-0.968v8.836l2.182,0.883L123.784,246.78z
				 M261.067,244.522l-34.363-13.882l-34.316,13.856l-34.312-13.856l-32.489,13.124v-3.96l32.489-13.128l34.318,13.856
				l34.309-13.856l34.381,13.888l34.373-13.888l34.271,13.843l34.285-13.843l34.386,13.888l34.359-13.888l34.311,13.856
				l34.303-13.856l34.372,13.888l34.399-13.888l34.297,13.853l34.293-13.853l34.382,13.888l34.37-13.888l32.385,13.082v3.958
				l-32.385-13.076l-34.381,13.88l-34.371-13.88l-34.301,13.851l-34.289-13.851l-34.395,13.882l-34.377-13.882l-34.298,13.857
				l-34.315-13.857l-34.368,13.882l-34.378-13.882l-34.276,13.851l-34.28-13.851L261.067,244.522z"/>
			<path fill="#F4D3D3" d="M123.809,259.733l0.203,0.061l34.064-13.762l32.814,13.25l1.554,0.583l34.259-13.833l34.004,13.738
				l0.12-0.032l0.344,0.137l34.284-13.843l32.793,13.25l0.64,0.239h1.743l33.382-13.489l34.063,13.757l0.203-0.06l0.306,0.108
				l34.174-13.806l32.811,13.25l1.124,0.421l0.568-0.118l0.441,0.055l33.669-13.607l34.199,13.812l0.281-0.103l0.188,0.058
				l34.103-13.767l32.522,13.136l1.088,0.993l34.979-14.129l33.459,13.506l0.451,0.123l0.545,0.22l34.297-13.849l32.797,13.241
				l1.631,0.642l2.228-0.978v-8.836l-2.349,0.946l-34.307-13.855l-34.37,13.887l-34.382-13.887l-34.293,13.851l-34.297-13.851
				l-34.399,13.887l-34.372-13.887l-34.303,13.855l-34.311-13.855L398.4,251.079l-34.386-13.887l-34.285,13.842l-34.271-13.842
				l-34.373,13.887l-34.381-13.887l-34.309,13.855l-34.318-13.855l-34.377,13.887l-2.385-0.965v8.833l2.195,0.891L123.809,259.733z
				 M261.067,257.476l-34.363-13.884l-34.316,13.857l-34.312-13.857l-32.489,13.128v-3.962l32.489-13.127l34.318,13.857
				l34.309-13.857l34.381,13.888l34.373-13.888l34.271,13.843l34.285-13.843l34.386,13.888l34.359-13.888l34.311,13.857
				l34.303-13.857l34.372,13.888l34.399-13.888l34.297,13.854l34.293-13.854l34.382,13.888l34.37-13.888l32.385,13.082v3.955
				l-32.385-13.076l-34.381,13.881l-34.371-13.881l-34.301,13.852l-34.289-13.852l-34.395,13.883l-34.377-13.883l-34.298,13.861
				l-34.315-13.861l-34.368,13.883l-34.378-13.883l-34.276,13.854l-34.28-13.854L261.067,257.476z"/>
			<path fill="#F4D3D3" d="M123.8,272.688l0.207,0.063l34.069-13.766l32.823,13.254l1.559,0.571l34.246-13.825l33.974,13.727
				l0.141-0.036l0.374,0.143l34.264-13.833l32.797,13.252l0.641,0.237h1.738l33.382-13.489l34.067,13.758l0.203-0.06l0.302,0.107
				l34.174-13.806l32.809,13.251l1.1,0.41l0.583-0.114l0.463,0.056l33.659-13.603l34.179,13.805l0.287-0.101l0.208,0.062
				l34.098-13.766l32.532,13.142l1.11,0.972l34.947-14.113l33.362,13.474l0.555,0.151l0.556,0.214l34.279-13.839l32.797,13.242
				l1.598,0.629l2.261-0.963v-8.84l-2.349,0.948l-34.307-13.858l-34.37,13.89l-34.382-13.89l-34.293,13.852l-34.297-13.852
				l-34.399,13.89l-34.372-13.89l-34.303,13.858l-34.311-13.858l-34.359,13.89l-34.386-13.89l-34.285,13.842l-34.271-13.842
				l-34.373,13.89l-34.381-13.89l-34.309,13.858l-34.318-13.858l-34.372,13.889l-2.39-0.971v8.839l2.195,0.89L123.8,272.688z
				 M261.067,270.43l-34.363-13.882l-34.316,13.854l-34.312-13.854l-32.489,13.124v-3.96l32.489-13.128l34.318,13.858l34.309-13.858
				l34.381,13.889l34.373-13.889l34.271,13.842l34.285-13.842l34.386,13.889l34.359-13.889l34.311,13.858l34.303-13.858
				l34.372,13.889l34.399-13.889l34.297,13.854l34.293-13.854l34.382,13.889l34.37-13.889l32.385,13.082v3.957l-32.385-13.075
				l-34.381,13.879l-34.371-13.879l-34.301,13.85l-34.289-13.85L535.75,270.43l-34.377-13.883l-34.298,13.857l-34.315-13.856
				l-34.368,13.882l-34.378-13.883l-34.276,13.853l-34.28-13.853L261.067,270.43z"/>
			<path fill="#F4D3D3" d="M123.801,285.643l0.201,0.062l34.074-13.763l32.811,13.248l1.539,0.59l34.277-13.838l33.662,13.599
				l0.344,0.139l0.111-0.031l0.34,0.138l34.295-13.844l32.79,13.249l0.641,0.241h1.745l33.382-13.49l34.079,13.762l0.194-0.058
				l0.292,0.104l34.181-13.809l32.809,13.248l1.12,0.422l0.567-0.117l0.438,0.058l33.68-13.61l34.186,13.803l0.285-0.1l0.201,0.061
				l34.1-13.765l32.516,13.132l1.065,1.005l35.009-14.136l33.456,13.502l0.466,0.129l0.542,0.211l34.288-13.843l32.795,13.241
				l1.645,0.647l2.216-0.984v-8.834l-2.349,0.945L707.486,263.1l-34.37,13.888L638.734,263.1l-34.293,13.851L570.145,263.1
				l-34.399,13.888L501.373,263.1l-34.303,13.856L432.76,263.1L398.4,276.987L364.014,263.1l-34.285,13.843L295.458,263.1
				l-34.373,13.888L226.704,263.1l-34.309,13.856L158.076,263.1l-34.372,13.888l-2.39-0.966v8.837l2.2,0.886L123.801,285.643z
				 M261.067,283.385l-34.363-13.884l-34.316,13.854l-34.312-13.854l-32.489,13.125v-3.958l32.489-13.129l34.318,13.856
				l34.309-13.856l34.381,13.887l34.373-13.887l34.271,13.843l34.285-13.843l34.386,13.887l34.359-13.887l34.311,13.856
				l34.303-13.856l34.372,13.887l34.399-13.887l34.297,13.852l34.293-13.852l34.382,13.887l34.37-13.887l32.385,13.08v3.958
				l-32.385-13.076l-34.381,13.88l-34.371-13.88l-34.301,13.851l-34.289-13.851l-34.395,13.883l-34.377-13.883l-34.298,13.86
				l-34.315-13.86l-34.368,13.884l-34.378-13.884l-34.276,13.851l-34.28-13.851L261.067,283.385z"/>
			<path fill="#F4D3D3" d="M123.804,298.594l0.208,0.063l34.064-13.763l32.825,13.255l1.565,0.567l34.237-13.822l33.979,13.73
				l0.138-0.035l0.367,0.142l34.269-13.837l32.793,13.251l0.64,0.239h1.743l33.382-13.49l34.058,13.757l0.199-0.058l0.308,0.109
				l34.181-13.809l32.809,13.251l1.097,0.411l0.581-0.113l0.463,0.057l33.664-13.605l34.207,13.813l0.274-0.101l0.181,0.056
				l34.109-13.769l32.532,13.142l1.105,0.973l34.952-14.114l33.456,13.503l0.446,0.123l0.553,0.219l34.297-13.845l32.795,13.243
				l1.594,0.628l2.267-0.963v-8.839l-2.354,0.948l-34.302-13.858l-34.37,13.89l-34.382-13.89l-34.293,13.854l-34.297-13.854
				l-34.399,13.89l-34.372-13.89l-34.303,13.858l-34.311-13.858l-34.359,13.89l-34.386-13.89l-34.285,13.842l-34.271-13.842
				l-34.373,13.89l-34.381-13.89l-34.309,13.858l-34.318-13.858l-34.372,13.89l-2.39-0.968v8.833l2.187,0.891L123.804,298.594z
				 M261.067,296.339l-34.363-13.884l-34.316,13.855l-34.312-13.855l-32.489,13.125v-3.959l32.489-13.129l34.318,13.857
				l34.309-13.857l34.381,13.89l34.373-13.89l34.271,13.843l34.285-13.843l34.386,13.89l34.359-13.89l34.311,13.857l34.303-13.857
				l34.372,13.89l34.399-13.89l34.297,13.853l34.293-13.853l34.382,13.89l34.37-13.89l32.385,13.081v3.958l-32.385-13.076
				l-34.381,13.88l-34.371-13.88l-34.301,13.851l-34.289-13.851l-34.395,13.884l-34.377-13.884l-34.298,13.858l-34.315-13.858
				l-34.368,13.884l-34.378-13.884l-34.276,13.851l-34.28-13.851L261.067,296.339z"/>
			<path fill="#F4D3D3" d="M123.809,311.55l0.203,0.061l34.064-13.762L190.89,311.1l1.55,0.583l34.264-13.834l33.995,13.735
				l0.129-0.035l0.35,0.14l34.278-13.84l32.795,13.252l0.64,0.239h1.741l33.382-13.491l34.074,13.762l0.203-0.062l0.297,0.105
				l34.172-13.806l32.809,13.249l1.14,0.43l0.562-0.124l0.426,0.055l33.678-13.609l34.177,13.802l0.296-0.103l0.211,0.062
				l34.088-13.761l32.522,13.137l1.088,0.989l34.979-14.126l33.362,13.475l0.521,0.142l0.576,0.229l34.293-13.845l32.799,13.244
				l1.627,0.634l2.229-0.971v-8.835l-2.344,0.942l-34.312-13.855l-34.37,13.887l-34.382-13.887l-34.293,13.85l-34.297-13.85
				l-34.399,13.887l-34.372-13.887l-34.303,13.854l-34.311-13.854L398.4,302.895l-34.386-13.887l-34.285,13.841l-34.271-13.841
				l-34.373,13.887l-34.381-13.887l-34.309,13.854l-34.318-13.854l-34.372,13.886l-2.39-0.969v8.84l2.2,0.89L123.809,311.55z
				 M261.067,309.293l-34.363-13.885l-34.316,13.855l-34.312-13.855l-32.489,13.126v-3.96l32.489-13.127l34.318,13.856
				l34.309-13.856l34.381,13.887l34.373-13.887l34.271,13.841l34.285-13.841l34.386,13.887l34.359-13.887l34.311,13.856
				l34.303-13.856l34.372,13.887l34.399-13.887l34.297,13.851l34.293-13.851l34.382,13.887l34.37-13.887l32.385,13.081v3.956
				l-32.385-13.076l-34.381,13.882l-34.371-13.882l-34.301,13.852l-34.289-13.852l-34.395,13.885l-34.377-13.885l-34.298,13.859
				l-34.315-13.859l-34.368,13.885l-34.378-13.885l-34.276,13.852l-34.28-13.852L261.067,309.293z"/>
			<path fill="#F4D3D3" d="M123.792,324.499l0.221,0.064l34.063-13.762l32.814,13.249l1.552,0.585l34.261-13.834l33.659,13.601
				l0.337,0.135l0.125-0.033l0.353,0.138l34.278-13.84l32.786,13.249l0.643,0.243h1.748l33.382-13.492l33.717,13.619l0.353,0.142
				l0.212-0.061l0.299,0.101l34.165-13.801l32.809,13.249l1.121,0.422l0.578-0.119l0.446,0.055l33.659-13.606l34.186,13.805
				l0.285-0.098l0.201,0.06l34.1-13.767l32.522,13.137l1.088,0.991l34.979-14.129l33.459,13.508l0.463,0.125l0.54,0.212
				l34.29-13.845l32.795,13.242l1.631,0.644l2.229-0.981v-8.836l-2.355,0.95l-34.3-13.86l-34.37,13.89l-34.382-13.89l-34.293,13.854
				l-34.297-13.854l-34.399,13.89l-34.372-13.89l-34.303,13.857l-34.311-13.857l-34.359,13.89l-34.386-13.89l-34.285,13.846
				l-34.271-13.846l-34.373,13.89l-34.381-13.89l-34.309,13.86l-34.318-13.86l-34.377,13.89l-2.385-0.967v8.835l2.172,0.884
				L123.792,324.499z M261.067,322.247l-34.363-13.886l-34.316,13.857l-34.312-13.857l-32.489,13.127v-3.96l32.489-13.128
				l34.318,13.855l34.309-13.855l34.381,13.889l34.373-13.889l34.271,13.844l34.285-13.844l34.386,13.889L432.76,304.4
				l34.311,13.855l34.303-13.855l34.372,13.888l34.399-13.888l34.297,13.854l34.293-13.854l34.382,13.889l34.37-13.889l32.385,13.08
				v3.959l-32.385-13.078l-34.381,13.881l-34.371-13.881l-34.301,13.854l-34.289-13.854l-34.395,13.886l-34.377-13.886
				l-34.298,13.86l-34.315-13.86l-34.368,13.886l-34.378-13.886l-34.276,13.854l-34.28-13.854L261.067,322.247z"/>
			<path fill="#F4D3D3" d="M123.801,337.46l0.201,0.062l34.074-13.767l32.811,13.249l1.539,0.591l34.277-13.84l33.987,13.732
				l0.121-0.031l0.358,0.145l34.286-13.846l32.786,13.248l0.643,0.243h1.748l33.382-13.491l34.081,13.765l0.187-0.057l0.292,0.104
				l34.186-13.813l32.809,13.25l1.12,0.421l0.56-0.114l0.438,0.06l33.687-13.616l34.207,13.816l0.289-0.107l0.18,0.053
				l34.096-13.763l32.516,13.137l1.065,1.004l35.009-14.141l33.456,13.506l0.458,0.125l0.555,0.212l34.283-13.843l32.795,13.242
				l1.645,0.651l2.216-0.987v-8.835l-2.349,0.946l-34.307-13.856l-34.37,13.889l-34.382-13.889l-34.293,13.854l-34.297-13.854
				l-34.399,13.889l-34.372-13.889l-34.303,13.856l-34.311-13.856L398.4,328.804l-34.386-13.889l-34.285,13.843l-34.271-13.843
				l-34.373,13.889l-34.381-13.889l-34.309,13.856l-34.318-13.856l-34.377,13.889l-2.385-0.967v8.833l2.193,0.895L123.801,337.46z
				 M261.067,335.201l-34.363-13.885l-34.316,13.854l-34.312-13.854l-32.489,13.127v-3.963l32.489-13.125l34.318,13.854
				l34.309-13.855l34.381,13.889l34.373-13.888l33.858,13.675l0.414,0.165l34.285-13.841l34.386,13.889l34.359-13.888l34.311,13.855
				l34.303-13.855l34.372,13.887l34.399-13.888l34.297,13.854l34.293-13.853l34.382,13.888l34.37-13.888l32.385,13.082v3.955
				l-32.385-13.076l-34.381,13.881l-34.371-13.881l-34.301,13.851l-34.289-13.851l-34.395,13.883l-34.377-13.883l-34.298,13.857
				l-34.315-13.857l-34.368,13.883l-34.378-13.883l-34.276,13.854l-34.28-13.854L261.067,335.201z"/>
			<path fill="#F4D3D3" d="M123.795,350.41l0.209,0.063l34.072-13.762l32.811,13.248l1.544,0.59l34.272-13.838l33.974,13.725
				l0.134-0.034l0.374,0.145l34.271-13.835l32.795,13.252l0.64,0.236h1.741l33.382-13.487l34.072,13.761l0.205-0.062l0.292,0.104
				l34.176-13.804l32.807,13.248l1.123,0.424l0.57-0.119l0.438,0.057l33.675-13.608l34.192,13.805l0.278-0.1l0.196,0.06
				l34.104-13.767l32.518,13.134l1.072,1l35-14.134l33.459,13.504l0.451,0.123l0.549,0.218l34.293-13.845l32.793,13.239l1.627,0.649
				l2.235-0.983v-8.838l-2.349,0.948l-34.307-13.856l-34.37,13.888l-34.382-13.888l-34.293,13.852l-34.297-13.852l-34.399,13.888
				l-34.372-13.888l-34.303,13.856l-34.311-13.856L398.4,341.757l-34.386-13.888l-34.285,13.841l-34.271-13.841l-34.373,13.888
				l-33.969-13.721l-0.412-0.167l-34.309,13.856l-34.318-13.856l-34.372,13.888l-2.39-0.967v8.835l2.187,0.886L123.795,350.41z
				 M295.458,334.272l-34.391,13.882l-34.363-13.882l-34.316,13.854l-34.312-13.854l-32.489,13.122v-3.959l32.489-13.127
				l34.318,13.856l34.309-13.856l34.381,13.89l34.373-13.89l34.271,13.845l34.285-13.845l34.386,13.89l34.359-13.89l34.311,13.856
				l34.303-13.856l34.372,13.888l34.399-13.888l34.297,13.853l34.293-13.853l34.382,13.89l34.37-13.89l32.385,13.082v3.956
				l-32.385-13.074l-34.381,13.878l-34.371-13.878l-34.301,13.85l-34.289-13.85l-34.395,13.882l-34.377-13.882l-34.298,13.858
				l-34.315-13.858l-34.368,13.882l-34.378-13.882l-34.276,13.85l-33.867-13.684L295.458,334.272z"/>
			<path fill="#F4D3D3" d="M123.8,363.37l0.196,0.062l34.081-13.769l32.809,13.248l1.546,0.59l34.272-13.838l33.995,13.734
				l0.122-0.032l0.354,0.139l34.282-13.841l32.788,13.249l0.641,0.242h1.748l33.382-13.491l34.077,13.764l0.2-0.06l0.292,0.104
				l34.176-13.808l32.807,13.249l1.123,0.426l0.575-0.12l0.434,0.055l33.675-13.609l34.197,13.811l0.287-0.104l0.189,0.059
				l34.098-13.766l32.518,13.137l1.072,0.998l35-14.135l33.459,13.507l0.428,0.116l0.563,0.229l34.302-13.852l32.793,13.238
				l1.629,0.651l2.233-0.984v-8.837l-2.349,0.948l-34.307-13.857l-34.37,13.889l-34.382-13.889l-34.293,13.853l-34.297-13.853
				l-34.399,13.889l-34.372-13.889L467.07,354.68l-34.311-13.857L398.4,354.711l-34.386-13.889l-34.285,13.842l-34.271-13.842
				l-34.373,13.889l-34.381-13.889l-34.309,13.857l-34.318-13.857l-34.377,13.889l-2.385-0.963v8.83l2.2,0.893L123.8,363.37z
				 M295.458,347.225l-34.391,13.885l-33.951-13.72l-0.412-0.165l-34.316,13.854l-34.312-13.854l-32.489,13.127v-3.96l32.489-13.13
				l34.318,13.856l34.309-13.856l34.381,13.889l34.373-13.889l34.271,13.844l34.285-13.844L398.4,357.15l34.359-13.889
				l34.311,13.856l34.303-13.856l34.372,13.889l34.399-13.889l34.297,13.853l34.293-13.853l34.382,13.889l34.37-13.889
				l32.385,13.083v3.956l-32.385-13.076l-34.381,13.881l-34.371-13.881l-34.301,13.852l-34.289-13.852l-34.395,13.883
				l-34.377-13.883l-34.298,13.861l-34.315-13.861l-34.368,13.883l-34.378-13.883l-34.276,13.852l-33.867-13.687L295.458,347.225z"
				/>
			<path fill="#F4D3D3" d="M123.804,376.308l0.226,0.064l34.047-13.755l32.818,13.251l1.559,0.576l34.25-13.827l33.966,13.724
				l0.13-0.033l0.383,0.149l34.273-13.839l32.788,13.247l0.641,0.241h1.748l33.382-13.488l34.049,13.749l0.211-0.059l0.321,0.11
				l34.164-13.802l32.804,13.247l1.101,0.417l0.578-0.113l0.46,0.059l33.671-13.608l34.165,13.796l0.308-0.104l0.221,0.063
				l34.078-13.757l32.529,13.14l1.104,0.979l34.956-14.119l34.117,13.779l0.099-0.031l0.241,0.098l34.295-13.846l32.795,13.24
				l1.6,0.634l2.261-0.964v-8.842l-2.349,0.949l-34.307-13.858l-34.37,13.889l-34.382-13.889l-34.293,13.853l-34.297-13.853
				l-34.399,13.889l-34.372-13.889l-34.303,13.858l-34.311-13.858L398.4,367.665l-34.386-13.889l-34.285,13.843l-34.271-13.843
				l-34.373,13.889l-33.969-13.723l-0.412-0.166l-34.309,13.858l-34.318-13.858l-34.372,13.889l-2.39-0.966v8.834l2.175,0.877
				L123.804,376.308z M295.458,360.181l-34.391,13.881l-33.951-13.714l-0.412-0.167l-34.316,13.854l-34.312-13.854l-32.489,13.123
				v-3.959l32.489-13.128l34.318,13.857l34.309-13.857l34.381,13.887l34.373-13.887l33.858,13.675l0.414,0.167l34.285-13.843
				l34.386,13.888l34.359-13.887l34.311,13.857l34.303-13.857l34.372,13.887l34.399-13.888l34.297,13.854l34.293-13.854
				l34.382,13.887l34.37-13.887l32.385,13.082v3.955l-32.385-13.073l-34.381,13.879l-34.371-13.879l-34.301,13.849l-34.289-13.849
				l-34.395,13.881l-34.377-13.881l-34.298,13.857l-34.315-13.857l-34.368,13.881l-34.378-13.881l-34.276,13.85l-33.867-13.683
				L295.458,360.181z"/>
			<path fill="#F4D3D3" d="M123.791,389.273l0.211,0.064l34.074-13.766l32.815,13.25l1.553,0.582l34.259-13.832l33.985,13.732
				l0.134-0.037l0.362,0.142l34.271-13.837l32.79,13.25l0.641,0.239h1.745l33.382-13.489l34.056,13.753l0.198-0.056l0.311,0.111
				l34.181-13.809l32.809,13.25l1.133,0.424l0.563-0.121l0.434,0.058l33.675-13.61l34.192,13.807l0.285-0.104l0.194,0.06
				l34.1-13.764l32.522,13.139l1.088,0.988l34.979-14.127l33.454,13.503l0.457,0.125l0.562,0.209l34.279-13.837l32.795,13.241
				l1.627,0.643l2.233-0.979v-8.835l-2.349,0.946l-34.307-13.856l-34.37,13.888l-34.382-13.888l-34.293,13.853l-34.297-13.853
				l-34.399,13.888l-34.372-13.888l-34.303,13.856l-34.311-13.856L398.4,380.619l-34.386-13.888l-34.285,13.841l-34.271-13.841
				l-34.373,13.888l-34.381-13.888l-34.309,13.856l-34.318-13.856l-34.372,13.886l-2.39-0.966v8.837l2.187,0.886L123.791,389.273z
				 M261.067,387.016l-34.363-13.883l-34.316,13.856l-34.312-13.856l-32.489,13.124v-3.959l32.489-13.128l34.318,13.854
				l34.309-13.854l34.381,13.888l34.373-13.888l34.271,13.839l34.285-13.84l34.386,13.889l34.359-13.888l34.311,13.855
				l34.303-13.855l34.372,13.887l34.399-13.888l34.297,13.852l34.293-13.851l34.382,13.888l34.37-13.888l32.385,13.081v3.957
				l-32.385-13.076l-34.381,13.879l-34.371-13.879l-34.301,13.852l-34.289-13.852l-34.395,13.883l-34.377-13.883l-34.298,13.859
				l-34.315-13.859l-34.368,13.883l-34.378-13.883l-34.276,13.853l-34.28-13.853L261.067,387.016z"/>
			<path fill="#F4D3D3" d="M123.792,402.221l0.221,0.067l34.063-13.763l32.818,13.253l1.562,0.574l34.247-13.827l33.992,13.733
				l0.13-0.035l0.355,0.137l34.275-13.835l32.793,13.251l0.64,0.239h1.743l33.382-13.49l33.717,13.619l0.353,0.143l0.212-0.063
				l0.3,0.103l34.164-13.801l32.804,13.249l1.12,0.423l0.564-0.118l0.438,0.06l33.687-13.613l34.188,13.805l0.277-0.097l0.201,0.061
				l34.104-13.77l32.524,13.141l1.098,0.983l34.968-14.124l33.459,13.503l0.387,0.103l0.605,0.243l34.301-13.849l32.799,13.243
				l1.617,0.635l2.239-0.971v-8.837l-2.354,0.949l-34.302-13.859l-34.37,13.887l-34.382-13.887l-34.293,13.851l-34.297-13.851
				l-34.399,13.887l-34.372-13.887L467.07,393.54l-34.311-13.855L398.4,393.571l-34.386-13.887l-34.285,13.843l-34.271-13.843
				l-34.373,13.887l-34.381-13.887l-34.309,13.855l-34.318-13.855l-34.377,13.887l-2.385-0.964v8.834l2.172,0.881L123.792,402.221z
				 M295.458,386.086l-34.391,13.883l-33.951-13.717l-0.412-0.166l-34.316,13.856l-33.898-13.69l-0.413-0.166l-32.489,13.125v-3.959
				l32.489-13.127l34.318,13.854l34.309-13.854l34.381,13.888l34.373-13.888l33.858,13.674l0.414,0.168l34.285-13.842l34.386,13.888
				l34.359-13.888l34.311,13.856l34.303-13.856l34.372,13.888l34.399-13.888l34.297,13.852l34.293-13.852l34.382,13.888
				l34.37-13.888l32.385,13.079v3.959l-32.385-13.077l-34.381,13.881l-34.371-13.881l-34.301,13.852l-34.289-13.852l-34.395,13.883
				l-34.377-13.883l-34.298,13.857l-34.315-13.857l-34.368,13.883l-34.378-13.883l-34.276,13.852l-33.867-13.686L295.458,386.086z"
				/>
			<path fill="#F4D3D3" d="M123.816,415.172l0.213,0.061l34.047-13.754l32.815,13.251l1.558,0.579l34.254-13.83l33.979,13.729
				l0.148-0.037l0.367,0.139l34.259-13.831l32.788,13.249l0.641,0.241h1.748l33.382-13.49l34.056,13.754l0.212-0.061l0.314,0.109
				l34.164-13.803l32.809,13.249l1.131,0.427l0.568-0.122l0.435,0.056l33.671-13.609l34.181,13.805l0.297-0.104l0.202,0.061
				l34.092-13.762l32.522,13.138l1.088,0.99l34.979-14.128l34.125,13.784l0.104-0.034l0.237,0.094l34.285-13.844l32.795,13.24
				l1.625,0.645l2.235-0.978v-8.834l-2.346,0.944l-34.31-13.858l-34.37,13.888l-34.382-13.888l-34.293,13.853l-34.297-13.853
				l-34.399,13.888l-34.372-13.888l-34.303,13.856l-34.311-13.856L398.4,406.525l-34.386-13.888l-34.285,13.843l-34.271-13.843
				l-34.373,13.888l-33.969-13.72l-0.412-0.168l-34.309,13.858l-34.318-13.858l-34.372,13.888l-2.39-0.965v8.835l2.187,0.886
				L123.816,415.172z M261.067,412.926l-34.363-13.888l-34.316,13.856l-34.312-13.856l-32.489,13.128v-3.961l32.489-13.128
				l34.318,13.86l34.309-13.86l34.381,13.889l34.373-13.889l33.858,13.675l0.414,0.168l34.285-13.844l34.386,13.89l34.359-13.889
				l34.311,13.86l34.303-13.86l34.372,13.887l34.399-13.887l34.297,13.854l34.293-13.854l34.382,13.889l34.37-13.889l32.385,13.084
				v3.955l-32.385-13.078l-34.381,13.882l-34.371-13.882l-34.301,13.853l-34.289-13.853l-34.395,13.884l-34.377-13.884
				l-34.298,13.86l-34.315-13.86l-34.368,13.884l-34.378-13.884l-34.276,13.855l-34.28-13.855L261.067,412.926z"/>
			<path fill="#F4D3D3" d="M123.801,428.14l0.197,0.062l34.078-13.768l32.814,13.249l1.55,0.584l34.264-13.833l34.011,13.741
				l0.111-0.032l0.34,0.136l34.291-13.845l32.795,13.252l0.64,0.235h1.741l33.382-13.487L398.1,428.2l0.188-0.058l0.289,0.102
				l34.183-13.811l32.813,13.25l1.129,0.421l0.559-0.118l0.436,0.058l33.678-13.61l34.181,13.801l0.276-0.096l0.207,0.063
				l34.107-13.771l32.522,13.139l1.088,0.988l34.979-14.127l33.454,13.504l0.464,0.129l0.555,0.208l34.279-13.841l32.795,13.242
				l1.627,0.643l2.233-0.979v-8.836l-2.354,0.948l-34.302-13.857l-34.37,13.888l-34.382-13.888l-34.293,13.851l-34.297-13.851
				l-34.399,13.888l-34.372-13.888L467.07,419.45l-34.311-13.857L398.4,419.48l-34.386-13.888l-34.285,13.841l-34.271-13.841
				l-34.373,13.888l-34.381-13.888l-34.309,13.857l-34.318-13.857l-34.377,13.888l-2.385-0.966v8.834l2.195,0.896L123.801,428.14z
				 M261.067,425.878l-34.363-13.887l-34.316,13.857l-34.312-13.857l-32.489,13.126v-3.958l32.489-13.127l34.318,13.855
				l34.309-13.855l34.381,13.889l34.373-13.889l34.271,13.84l34.285-13.841l34.386,13.89l34.359-13.889l34.311,13.856l34.303-13.856
				l34.372,13.889l34.399-13.89l34.297,13.853l34.293-13.852l34.382,13.889l34.37-13.889l32.385,13.081v3.957l-32.385-13.077
				l-34.381,13.882l-34.371-13.882l-34.301,13.85l-34.289-13.85l-34.395,13.884l-34.377-13.886l-34.298,13.861l-34.315-13.861
				l-34.368,13.886l-34.378-13.886l-34.276,13.854l-34.28-13.854L261.067,425.878z"/>
			<path fill="#F4D3D3" d="M707.486,418.545l-32.692,13.212h-3.354l-32.705-13.212l-32.707,13.212h-3.176l-32.707-13.212
				l-32.717,13.212h-3.361l-32.693-13.212l-32.701,13.212h-3.204l-32.708-13.212l-32.684,13.212h-3.356l-32.706-13.212
				l-32.716,13.212h-3.13l-32.71-13.212l-32.694,13.212h-3.356l-32.704-13.212l-32.71,13.212h-3.202l-32.715-13.212l-36.968,14.938
				h21.882l15.086-6.094l15.096,6.094h15.857l3.366,1.361l3.364-1.361h15.845l15.1-6.094l15.086,6.094h15.855l3.439,1.389
				l3.439-1.389h15.835l15.096-6.094l15.079,6.094h15.866l3.328,1.347l3.33-1.347h15.875l15.08-6.094l15.094,6.094h15.85l3.442,1.39
				l3.435-1.39h15.834l15.09-6.094l15.088,6.094h15.857l3.365,1.361l3.368-1.361h15.853l15.082-6.094l15.1,6.094h15.835l3.438,1.389
				l3.442-1.389h15.855l15.102-6.094l15.093,6.094h15.85l3.354,1.354l3.352-1.354h15.848l15.094-6.094l15.091,6.094h15.851
				l3.44,1.389l3.44-1.389h15.832l15.098-6.094l15.096,6.094h21.887L707.486,418.545z M131.416,431.757l26.66-10.771l26.68,10.771
				h-9.815l-16.865-6.808l-16.855,6.808H131.416z M253.37,431.757h-9.811l-16.855-6.808l-16.863,6.808h-9.811l26.674-10.771
				l26.668,10.771H253.37z M322.127,431.757h-9.823l-16.847-6.808l-16.869,6.808h-9.788l26.657-10.77L322.127,431.757z
				 M390.678,431.757h-9.801l-16.863-6.808l-16.852,6.808h-9.831l26.682-10.772l26.669,10.772H390.678z M459.434,431.757h-9.814
				l-16.859-6.808l-16.855,6.808h-9.798l26.653-10.77L459.434,431.757z M528.032,431.757h-9.79l-16.869-6.808l-16.852,6.808h-9.809
				l26.66-10.77L528.032,431.757z M543.463,431.757l26.682-10.772l26.67,10.772h-9.809l-16.861-6.808l-16.871,6.808h-9.806H543.463z
				 M665.4,431.757h-9.807l-16.859-6.808l-16.863,6.808h-9.809l26.672-10.771L665.4,431.757z M724.352,431.757l-16.865-6.808
				l-16.867,6.808h-9.787l26.654-10.77l26.666,10.77H724.352z"/>
			<path fill="#F4D3D3" d="M123.791,194.963l0.214,0.064l23.096-9.328H125.22l-1.519,0.611l-2.387-0.967v8.836l2.182,0.882
				L123.791,194.963z M136.79,187.424l-11.203,4.525v-3.958l1.397-0.567H136.79z"/>
			<path fill="#F4D3D3" d="M672.631,194.884l0.567,0.224l23.306-9.408h-21.876l-1.515,0.611l-1.516-0.611h-21.879l22.378,9.037
				L672.631,194.884z M669.833,187.424l3.283,1.327l3.281-1.327h9.79l-13.082,5.28l-13.076-5.28H669.833z"/>
			<path fill="#F4D3D3" d="M743.504,186.972l-3.156-1.272h-21.873l25.029,10.11V186.972z M738.581,187.424l0.655,0.264v3.957
				l-10.453-4.221H738.581z"/>
			<path fill="#F4D3D3" d="M603.803,195.369l23.943-9.67h-21.877l-1.428,0.576l-1.426-0.576h-21.898l21.568,8.708L603.803,195.369z
				 M601.242,187.424l3.199,1.291l3.195-1.291h9.801l-13.004,5.252l-13-5.252H601.242z"/>
			<path fill="#F4D3D3" d="M398.289,194.961l0.306,0.105l23.185-9.367h-21.864l-1.517,0.611l-1.52-0.611h-21.884l23.082,9.323
				L398.289,194.961z M395.116,187.424l3.285,1.327l3.281-1.327h9.788l-13.078,5.283l-13.085-5.283H395.116z"/>
			<path fill="#F4D3D3" d="M466.674,194.925l0.582-0.116l0.465,0.055l22.678-9.164H468.51l-1.439,0.581l-1.436-0.581h-21.893
				l21.83,8.815L466.674,194.925z M463.867,187.424l3.203,1.296l3.203-1.296h9.818l-13.017,5.258l-13.021-5.258H463.867z"/>
			<path fill="#F4D3D3" d="M192.486,195.08l23.232-9.381h-21.885l-1.438,0.581l-1.437-0.581h-21.901l21.847,8.82L192.486,195.08z
				 M189.189,187.424l3.205,1.296l3.204-1.296h9.803l-13.014,5.257l-13.016-5.257H189.189z"/>
			<path fill="#F4D3D3" d="M328.857,194.753h1.775l22.407-9.054h-21.903l-1.405,0.566l-1.401-0.566H306.43l21.798,8.808
				L328.857,194.753z M326.562,187.424l3.167,1.282l3.176-1.282h9.828l-12.995,5.253l-13-5.253H326.562z"/>
			<path fill="#F4D3D3" d="M535.857,194.965l0.203,0.06l23.091-9.325h-21.888l-1.519,0.611l-1.513-0.611h-21.875l23.205,9.369
				L535.857,194.965z M532.467,187.424l3.278,1.327l3.284-1.327h9.809l-13.088,5.283l-13.08-5.283H532.467z"/>
			<path fill="#F4D3D3" d="M260.814,194.958l0.366,0.146l23.289-9.404h-21.868l-1.517,0.611l-1.514-0.611h-21.89l23.001,9.293
				L260.814,194.958z M257.802,187.424l3.283,1.326l3.285-1.326h9.786l-13.089,5.285l-13.078-5.285H257.802z"/>
		</g>
	</g>
</g>
</svg>
