
<svg id="separator" x="0px" y="0px"
	 width="841.89px" height="595.28px" viewBox="0 0 841.89 595.28" enable-background="new 0 0 841.89 595.28">
<path fill="blue" d="M243.006,61.375v12.243c0.093-0.516,0.147-1.05,0.147-1.603c0,3.937,2.478,7.137,5.533,7.137
	c3.064,0,5.532-3.2,5.532-7.137c0,0.781,0.102,1.531,0.282,2.235V61.375H243.006z"/>
<path fill="blue" d="M651.327,178.208v16.184c1.251-1.309,2.05-3.306,2.05-5.543c0,3.937,2.475,7.137,5.529,7.137
	c3.064,0,5.545-3.2,5.545-7.137c0,3.937,2.477,7.137,5.531,7.137c3.053,0,5.541-3.2,5.541-7.137c0,3.937,2.465,7.137,5.531,7.137
	c3.049,0,5.539-3.2,5.539-7.137c0,3.937,2.473,7.137,5.533,7.137c3.043,0,5.533-3.2,5.533-7.137c0,3.937,2.477,7.137,5.531,7.137
	c3.061,0,5.531-3.2,5.531-7.137c0,3.937,2.479,7.137,5.529,7.137c3.066,0,5.543-3.2,5.543-7.137v-10.641H651.327z"/>
</svg>
